<?xml version="1.0" encoding="UTF-8" standalone="no"?>
<svg
   xmlns:dc="http://purl.org/dc/elements/1.1/"
   xmlns:cc="http://creativecommons.org/ns#"
   xmlns:rdf="http://www.w3.org/1999/02/22-rdf-syntax-ns#"
   xmlns:svg="http://www.w3.org/2000/svg"
   xmlns="http://www.w3.org/2000/svg"
   xmlns:sodipodi="http://sodipodi.sourceforge.net/DTD/sodipodi-0.dtd"
   xmlns:inkscape="http://www.inkscape.org/namespaces/inkscape"
   width="1706.88"
   height="1706.88"
   viewBox="0 0 5334.0004 5334.0004"
   version="1.1"
   id="svg3"
   sodipodi:docname="white.svg"
   inkscape:version="0.92.4 (5da689c313, 2019-01-14)">
   <metadata
      id="metadata9">
      <rdf:RDF>
         <cc:Work
            rdf:about="">
            <dc:format>image/svg+xml</dc:format>
            <dc:type
               rdf:resource="http://purl.org/dc/dcmitype/StillImage" />
            <dc:title></dc:title>
         </cc:Work>
      </rdf:RDF>
   </metadata>
   <defs
      id="defs7" />
   <sodipodi:namedview
      pagecolor="#ffffff"
      bordercolor="#666666"
      borderopacity="1"
      objecttolerance="10"
      gridtolerance="10"
      guidetolerance="10"
      inkscape:pageopacity="0"
      inkscape:pageshadow="2"
      inkscape:window-width="1600"
      inkscape:window-height="837"
      id="namedview5"
      showgrid="false"
      inkscape:zoom="0.25000001"
      inkscape:cx="397.05683"
      inkscape:cy="769.48614"
      inkscape:window-x="-8"
      inkscape:window-y="366"
      inkscape:window-maximized="1"
      inkscape:current-layer="svg3"
      inkscape:pagecheckerboard="true"
      units="px" />
   <rect
      style="display:inline;opacity:1;fill:#ececec;fill-opacity:1;fill-rule:nonzero;stroke:none;stroke-width:78.98833466;stroke-linecap:butt;stroke-linejoin:round;stroke-miterlimit:4;stroke-dasharray:none;stroke-opacity:1;paint-order:normal"
      id="rect3725-9"
      width="5334.0005"
      height="5334.0005"
      x="0"
      y="-8.8281246e-05"
      inkscape:label="blue" />
   <path
      id="Unnamed"
      d="m 633.5,1821.5 c 0,0 307.77,-533.32 307.77,-533.32 0,0 3334.73,-2.3 3334.73,-2.3 0,0 -1228.91,2125.03 -1228.91,2125.03 0,0 -312.84,-542.16 -312.84,-542.16 0,0 611.13,-1046.56 611.13,-1046.56 0,0 -2711.88,-0.69 -2711.88,-0.69 z m 9.37,135.11 c 0,0 2453.25,4.01 2453.25,4.01 0,0 -313.94,541.74 -313.94,541.74 0,0 -1209.27,-7.63 -1209.27,-7.63 0,0 1352.39,2346.92 1352.39,2346.97 0,0.04 -613.17,2.19 -613.17,2.19 0,0 -1669.26,-2887.28 -1669.26,-2887.28 z M 4388.5,1347.94 c 0,0 -1355.86,2343.06 -1355.86,2343.15 0,0.09 -598.62,-1049.25 -598.62,-1049.25 0,0 -625.72,-1.15 -625.72,-1.15 0,0 1223.25,2126.13 1223.25,2126.22 0,0.09 1665.76,-2888.44 1665.78,-2888.46 0.01,-0.01 -308.83,-530.51 -308.83,-530.51 z"
      style="fill:#000000;stroke:none;stroke-width:1.00000007;stroke-miterlimit:4;stroke-dasharray:none"
      inkscape:connector-curvature="0"
      inkscape:label="lines" />
</svg>